<mxfile host="app.diagrams.net" agent="Mozilla/5.0 (Windows NT 10.0; Win64; x64) AppleWebKit/537.36 (KHTML, like Gecko) Chrome/132.0.0.0 Safari/537.36" version="26.0.11">
  <diagram name="Page-1" id="ficFq2dpoY-JNm3BQDIN">
    <mxGraphModel dx="1004" dy="623" grid="1" gridSize="10" guides="1" tooltips="1" connect="1" arrows="1" fold="1" page="1" pageScale="1" pageWidth="827" pageHeight="1169" math="0" shadow="0">
      <root>
        <mxCell id="0" />
        <mxCell id="1" parent="0" />
        <mxCell id="Qo_-CNz6Zj_6xuXICWID-33" style="edgeStyle=orthogonalEdgeStyle;rounded=0;orthogonalLoop=1;jettySize=auto;html=1;exitX=0.5;exitY=1;exitDx=0;exitDy=0;entryX=0.5;entryY=0;entryDx=0;entryDy=0;" edge="1" parent="1" source="Qo_-CNz6Zj_6xuXICWID-1" target="Qo_-CNz6Zj_6xuXICWID-2">
          <mxGeometry relative="1" as="geometry" />
        </mxCell>
        <mxCell id="Qo_-CNz6Zj_6xuXICWID-34" style="edgeStyle=orthogonalEdgeStyle;rounded=0;orthogonalLoop=1;jettySize=auto;html=1;exitX=0.5;exitY=1;exitDx=0;exitDy=0;entryX=0.5;entryY=0;entryDx=0;entryDy=0;" edge="1" parent="1" source="Qo_-CNz6Zj_6xuXICWID-1" target="Qo_-CNz6Zj_6xuXICWID-5">
          <mxGeometry relative="1" as="geometry" />
        </mxCell>
        <mxCell id="Qo_-CNz6Zj_6xuXICWID-35" style="edgeStyle=orthogonalEdgeStyle;rounded=0;orthogonalLoop=1;jettySize=auto;html=1;exitX=0.5;exitY=1;exitDx=0;exitDy=0;entryX=0.5;entryY=0;entryDx=0;entryDy=0;" edge="1" parent="1" source="Qo_-CNz6Zj_6xuXICWID-1" target="Qo_-CNz6Zj_6xuXICWID-6">
          <mxGeometry relative="1" as="geometry" />
        </mxCell>
        <mxCell id="Qo_-CNz6Zj_6xuXICWID-1" value="Home" style="rounded=0;whiteSpace=wrap;html=1;" vertex="1" parent="1">
          <mxGeometry x="354" y="70" width="120" height="60" as="geometry" />
        </mxCell>
        <mxCell id="Qo_-CNz6Zj_6xuXICWID-7" style="edgeStyle=orthogonalEdgeStyle;rounded=0;orthogonalLoop=1;jettySize=auto;html=1;exitX=0.5;exitY=1;exitDx=0;exitDy=0;" edge="1" parent="1" source="Qo_-CNz6Zj_6xuXICWID-2" target="Qo_-CNz6Zj_6xuXICWID-4">
          <mxGeometry relative="1" as="geometry" />
        </mxCell>
        <mxCell id="Qo_-CNz6Zj_6xuXICWID-8" style="edgeStyle=orthogonalEdgeStyle;rounded=0;orthogonalLoop=1;jettySize=auto;html=1;exitX=0.5;exitY=1;exitDx=0;exitDy=0;entryX=0.5;entryY=0;entryDx=0;entryDy=0;" edge="1" parent="1" source="Qo_-CNz6Zj_6xuXICWID-2" target="Qo_-CNz6Zj_6xuXICWID-3">
          <mxGeometry relative="1" as="geometry" />
        </mxCell>
        <mxCell id="Qo_-CNz6Zj_6xuXICWID-2" value="Settings" style="rounded=0;whiteSpace=wrap;html=1;" vertex="1" parent="1">
          <mxGeometry x="354" y="180" width="120" height="60" as="geometry" />
        </mxCell>
        <mxCell id="Qo_-CNz6Zj_6xuXICWID-3" value="Skins" style="rounded=0;whiteSpace=wrap;html=1;" vertex="1" parent="1">
          <mxGeometry x="474" y="290" width="120" height="60" as="geometry" />
        </mxCell>
        <mxCell id="Qo_-CNz6Zj_6xuXICWID-4" value="Background" style="rounded=0;whiteSpace=wrap;html=1;" vertex="1" parent="1">
          <mxGeometry x="234" y="290" width="120" height="60" as="geometry" />
        </mxCell>
        <mxCell id="Qo_-CNz6Zj_6xuXICWID-29" style="edgeStyle=orthogonalEdgeStyle;rounded=0;orthogonalLoop=1;jettySize=auto;html=1;exitX=0.5;exitY=1;exitDx=0;exitDy=0;entryX=0.5;entryY=0;entryDx=0;entryDy=0;" edge="1" parent="1" source="Qo_-CNz6Zj_6xuXICWID-5" target="Qo_-CNz6Zj_6xuXICWID-27">
          <mxGeometry relative="1" as="geometry" />
        </mxCell>
        <mxCell id="Qo_-CNz6Zj_6xuXICWID-5" value="Buttons" style="rounded=0;whiteSpace=wrap;html=1;" vertex="1" parent="1">
          <mxGeometry x="670" y="180" width="120" height="60" as="geometry" />
        </mxCell>
        <mxCell id="Qo_-CNz6Zj_6xuXICWID-42" style="edgeStyle=orthogonalEdgeStyle;rounded=0;orthogonalLoop=1;jettySize=auto;html=1;exitX=0.5;exitY=1;exitDx=0;exitDy=0;entryX=0.5;entryY=0;entryDx=0;entryDy=0;" edge="1" parent="1" source="Qo_-CNz6Zj_6xuXICWID-6" target="Qo_-CNz6Zj_6xuXICWID-36">
          <mxGeometry relative="1" as="geometry" />
        </mxCell>
        <mxCell id="Qo_-CNz6Zj_6xuXICWID-6" value="User Info" style="rounded=0;whiteSpace=wrap;html=1;" vertex="1" parent="1">
          <mxGeometry x="40" y="180" width="120" height="60" as="geometry" />
        </mxCell>
        <mxCell id="Qo_-CNz6Zj_6xuXICWID-14" style="edgeStyle=orthogonalEdgeStyle;rounded=0;orthogonalLoop=1;jettySize=auto;html=1;exitX=0.5;exitY=1;exitDx=0;exitDy=0;entryX=0.5;entryY=0;entryDx=0;entryDy=0;" edge="1" parent="1" source="Qo_-CNz6Zj_6xuXICWID-9" target="Qo_-CNz6Zj_6xuXICWID-12">
          <mxGeometry relative="1" as="geometry" />
        </mxCell>
        <mxCell id="Qo_-CNz6Zj_6xuXICWID-9" value="Wild West" style="rounded=0;whiteSpace=wrap;html=1;" vertex="1" parent="1">
          <mxGeometry x="234" y="390" width="94" height="40" as="geometry" />
        </mxCell>
        <mxCell id="Qo_-CNz6Zj_6xuXICWID-10" value="Mystical" style="rounded=0;whiteSpace=wrap;html=1;" vertex="1" parent="1">
          <mxGeometry x="234" y="585" width="94" height="40" as="geometry" />
        </mxCell>
        <mxCell id="Qo_-CNz6Zj_6xuXICWID-16" style="edgeStyle=orthogonalEdgeStyle;rounded=0;orthogonalLoop=1;jettySize=auto;html=1;exitX=0.5;exitY=1;exitDx=0;exitDy=0;entryX=0.5;entryY=0;entryDx=0;entryDy=0;" edge="1" parent="1" source="Qo_-CNz6Zj_6xuXICWID-11" target="Qo_-CNz6Zj_6xuXICWID-10">
          <mxGeometry relative="1" as="geometry" />
        </mxCell>
        <mxCell id="Qo_-CNz6Zj_6xuXICWID-11" value="Sea Shore" style="rounded=0;whiteSpace=wrap;html=1;" vertex="1" parent="1">
          <mxGeometry x="234" y="525" width="94" height="40" as="geometry" />
        </mxCell>
        <mxCell id="Qo_-CNz6Zj_6xuXICWID-15" style="edgeStyle=orthogonalEdgeStyle;rounded=0;orthogonalLoop=1;jettySize=auto;html=1;exitX=0.5;exitY=1;exitDx=0;exitDy=0;entryX=0.5;entryY=0;entryDx=0;entryDy=0;" edge="1" parent="1" source="Qo_-CNz6Zj_6xuXICWID-12" target="Qo_-CNz6Zj_6xuXICWID-11">
          <mxGeometry relative="1" as="geometry" />
        </mxCell>
        <mxCell id="Qo_-CNz6Zj_6xuXICWID-12" value="Forest" style="rounded=0;whiteSpace=wrap;html=1;" vertex="1" parent="1">
          <mxGeometry x="234" y="460" width="94" height="40" as="geometry" />
        </mxCell>
        <mxCell id="Qo_-CNz6Zj_6xuXICWID-13" style="edgeStyle=orthogonalEdgeStyle;rounded=0;orthogonalLoop=1;jettySize=auto;html=1;exitX=0.5;exitY=1;exitDx=0;exitDy=0;entryX=0.665;entryY=-0.012;entryDx=0;entryDy=0;entryPerimeter=0;" edge="1" parent="1" source="Qo_-CNz6Zj_6xuXICWID-4" target="Qo_-CNz6Zj_6xuXICWID-9">
          <mxGeometry relative="1" as="geometry" />
        </mxCell>
        <mxCell id="Qo_-CNz6Zj_6xuXICWID-17" style="edgeStyle=orthogonalEdgeStyle;rounded=0;orthogonalLoop=1;jettySize=auto;html=1;exitX=0.5;exitY=1;exitDx=0;exitDy=0;entryX=0.5;entryY=0;entryDx=0;entryDy=0;" edge="1" parent="1" target="Qo_-CNz6Zj_6xuXICWID-22" source="Qo_-CNz6Zj_6xuXICWID-3">
          <mxGeometry relative="1" as="geometry">
            <mxPoint x="521" y="370" as="sourcePoint" />
          </mxGeometry>
        </mxCell>
        <mxCell id="Qo_-CNz6Zj_6xuXICWID-24" style="edgeStyle=orthogonalEdgeStyle;rounded=0;orthogonalLoop=1;jettySize=auto;html=1;exitX=0.5;exitY=1;exitDx=0;exitDy=0;entryX=0.5;entryY=0;entryDx=0;entryDy=0;" edge="1" parent="1" source="Qo_-CNz6Zj_6xuXICWID-18" target="Qo_-CNz6Zj_6xuXICWID-23">
          <mxGeometry relative="1" as="geometry" />
        </mxCell>
        <mxCell id="Qo_-CNz6Zj_6xuXICWID-18" value="Safari" style="rounded=0;whiteSpace=wrap;html=1;" vertex="1" parent="1">
          <mxGeometry x="487" y="530" width="94" height="40" as="geometry" />
        </mxCell>
        <mxCell id="Qo_-CNz6Zj_6xuXICWID-19" style="edgeStyle=orthogonalEdgeStyle;rounded=0;orthogonalLoop=1;jettySize=auto;html=1;exitX=0.5;exitY=1;exitDx=0;exitDy=0;entryX=0.5;entryY=0;entryDx=0;entryDy=0;" edge="1" parent="1" source="Qo_-CNz6Zj_6xuXICWID-20" target="Qo_-CNz6Zj_6xuXICWID-18">
          <mxGeometry relative="1" as="geometry" />
        </mxCell>
        <mxCell id="Qo_-CNz6Zj_6xuXICWID-20" value="Knight" style="rounded=0;whiteSpace=wrap;html=1;" vertex="1" parent="1">
          <mxGeometry x="487" y="460" width="94" height="40" as="geometry" />
        </mxCell>
        <mxCell id="Qo_-CNz6Zj_6xuXICWID-21" style="edgeStyle=orthogonalEdgeStyle;rounded=0;orthogonalLoop=1;jettySize=auto;html=1;exitX=0.5;exitY=1;exitDx=0;exitDy=0;entryX=0.5;entryY=0;entryDx=0;entryDy=0;" edge="1" parent="1" source="Qo_-CNz6Zj_6xuXICWID-22" target="Qo_-CNz6Zj_6xuXICWID-20">
          <mxGeometry relative="1" as="geometry" />
        </mxCell>
        <mxCell id="Qo_-CNz6Zj_6xuXICWID-22" value="Cowboy" style="rounded=0;whiteSpace=wrap;html=1;" vertex="1" parent="1">
          <mxGeometry x="487" y="390" width="94" height="40" as="geometry" />
        </mxCell>
        <mxCell id="Qo_-CNz6Zj_6xuXICWID-23" value="Summer" style="rounded=0;whiteSpace=wrap;html=1;" vertex="1" parent="1">
          <mxGeometry x="487" y="585" width="94" height="40" as="geometry" />
        </mxCell>
        <mxCell id="Qo_-CNz6Zj_6xuXICWID-32" style="edgeStyle=orthogonalEdgeStyle;rounded=0;orthogonalLoop=1;jettySize=auto;html=1;exitX=0.5;exitY=1;exitDx=0;exitDy=0;entryX=0.5;entryY=0;entryDx=0;entryDy=0;" edge="1" parent="1" source="Qo_-CNz6Zj_6xuXICWID-25" target="Qo_-CNz6Zj_6xuXICWID-28">
          <mxGeometry relative="1" as="geometry" />
        </mxCell>
        <mxCell id="Qo_-CNz6Zj_6xuXICWID-25" value="Slaap" style="rounded=0;whiteSpace=wrap;html=1;" vertex="1" parent="1">
          <mxGeometry x="683" y="450" width="94" height="40" as="geometry" />
        </mxCell>
        <mxCell id="Qo_-CNz6Zj_6xuXICWID-31" style="edgeStyle=orthogonalEdgeStyle;rounded=0;orthogonalLoop=1;jettySize=auto;html=1;exitX=0.5;exitY=1;exitDx=0;exitDy=0;entryX=0.5;entryY=0;entryDx=0;entryDy=0;" edge="1" parent="1" source="Qo_-CNz6Zj_6xuXICWID-26" target="Qo_-CNz6Zj_6xuXICWID-25">
          <mxGeometry relative="1" as="geometry" />
        </mxCell>
        <mxCell id="Qo_-CNz6Zj_6xuXICWID-26" value="Heineken" style="rounded=0;whiteSpace=wrap;html=1;" vertex="1" parent="1">
          <mxGeometry x="683" y="370" width="94" height="40" as="geometry" />
        </mxCell>
        <mxCell id="Qo_-CNz6Zj_6xuXICWID-30" style="edgeStyle=orthogonalEdgeStyle;rounded=0;orthogonalLoop=1;jettySize=auto;html=1;exitX=0.5;exitY=1;exitDx=0;exitDy=0;entryX=0.5;entryY=0;entryDx=0;entryDy=0;" edge="1" parent="1" source="Qo_-CNz6Zj_6xuXICWID-27" target="Qo_-CNz6Zj_6xuXICWID-26">
          <mxGeometry relative="1" as="geometry" />
        </mxCell>
        <mxCell id="Qo_-CNz6Zj_6xuXICWID-27" value="Banaan" style="rounded=0;whiteSpace=wrap;html=1;" vertex="1" parent="1">
          <mxGeometry x="683" y="290" width="94" height="40" as="geometry" />
        </mxCell>
        <mxCell id="Qo_-CNz6Zj_6xuXICWID-28" value="Werk" style="rounded=0;whiteSpace=wrap;html=1;" vertex="1" parent="1">
          <mxGeometry x="683" y="525" width="94" height="40" as="geometry" />
        </mxCell>
        <mxCell id="Qo_-CNz6Zj_6xuXICWID-43" style="edgeStyle=orthogonalEdgeStyle;rounded=0;orthogonalLoop=1;jettySize=auto;html=1;exitX=0.5;exitY=1;exitDx=0;exitDy=0;entryX=0.5;entryY=0;entryDx=0;entryDy=0;" edge="1" parent="1" source="Qo_-CNz6Zj_6xuXICWID-36" target="Qo_-CNz6Zj_6xuXICWID-40">
          <mxGeometry relative="1" as="geometry" />
        </mxCell>
        <mxCell id="Qo_-CNz6Zj_6xuXICWID-36" value="Naam" style="rounded=0;whiteSpace=wrap;html=1;" vertex="1" parent="1">
          <mxGeometry x="53" y="260" width="94" height="40" as="geometry" />
        </mxCell>
        <mxCell id="Qo_-CNz6Zj_6xuXICWID-46" style="edgeStyle=orthogonalEdgeStyle;rounded=0;orthogonalLoop=1;jettySize=auto;html=1;exitX=0.5;exitY=1;exitDx=0;exitDy=0;entryX=0.5;entryY=0;entryDx=0;entryDy=0;" edge="1" parent="1" source="Qo_-CNz6Zj_6xuXICWID-38" target="Qo_-CNz6Zj_6xuXICWID-41">
          <mxGeometry relative="1" as="geometry" />
        </mxCell>
        <mxCell id="Qo_-CNz6Zj_6xuXICWID-38" value="Date Created" style="rounded=0;whiteSpace=wrap;html=1;" vertex="1" parent="1">
          <mxGeometry x="53" y="470" width="94" height="40" as="geometry" />
        </mxCell>
        <mxCell id="Qo_-CNz6Zj_6xuXICWID-45" style="edgeStyle=orthogonalEdgeStyle;rounded=0;orthogonalLoop=1;jettySize=auto;html=1;exitX=0.5;exitY=1;exitDx=0;exitDy=0;entryX=0.5;entryY=0;entryDx=0;entryDy=0;" edge="1" parent="1" source="Qo_-CNz6Zj_6xuXICWID-39" target="Qo_-CNz6Zj_6xuXICWID-38">
          <mxGeometry relative="1" as="geometry" />
        </mxCell>
        <mxCell id="Qo_-CNz6Zj_6xuXICWID-39" value="Pet Type" style="rounded=0;whiteSpace=wrap;html=1;" vertex="1" parent="1">
          <mxGeometry x="53" y="400" width="94" height="40" as="geometry" />
        </mxCell>
        <mxCell id="Qo_-CNz6Zj_6xuXICWID-44" style="edgeStyle=orthogonalEdgeStyle;rounded=0;orthogonalLoop=1;jettySize=auto;html=1;exitX=0.5;exitY=1;exitDx=0;exitDy=0;entryX=0.5;entryY=0;entryDx=0;entryDy=0;" edge="1" parent="1" source="Qo_-CNz6Zj_6xuXICWID-40" target="Qo_-CNz6Zj_6xuXICWID-39">
          <mxGeometry relative="1" as="geometry" />
        </mxCell>
        <mxCell id="Qo_-CNz6Zj_6xuXICWID-40" value="Playtime" style="rounded=0;whiteSpace=wrap;html=1;" vertex="1" parent="1">
          <mxGeometry x="53" y="330" width="94" height="40" as="geometry" />
        </mxCell>
        <mxCell id="Qo_-CNz6Zj_6xuXICWID-41" value="Info" style="rounded=0;whiteSpace=wrap;html=1;" vertex="1" parent="1">
          <mxGeometry x="53" y="545" width="94" height="40" as="geometry" />
        </mxCell>
      </root>
    </mxGraphModel>
  </diagram>
</mxfile>
